<?xml version="1.0" encoding="UTF-8" standalone="no"?>
<!-- Created with Inkscape (http://www.inkscape.org/) -->
<svg
   xmlns:dc="http://purl.org/dc/elements/1.1/"
   xmlns:cc="http://web.resource.org/cc/"
   xmlns:rdf="http://www.w3.org/1999/02/22-rdf-syntax-ns#"
   xmlns:svg="http://www.w3.org/2000/svg"
   xmlns="http://www.w3.org/2000/svg"
   xmlns:sodipodi="http://inkscape.sourceforge.net/DTD/sodipodi-0.dtd"
   xmlns:inkscape="http://www.inkscape.org/namespaces/inkscape"
   sodipodi:docbase="/home/nili/proj/generalen.rb"
   id="svg2"
   version="1.0"
   inkscape:version="0.43"
   sodipodi:version="0.32"
   height="537"
   sodipodi:docname="map3.svg"
   width="800">
  <defs
     id="defs4" />
  <sodipodi:namedview
     inkscape:cy="121.21557"
     inkscape:current-layer="layer1"
     inkscape:window-width="1016"
     pagecolor="#ffffff"
     inkscape:grid-points="true"
     showgrid="true"
     inkscape:pageshadow="2"
     inkscape:window-x="1280"
     id="base"
     bordercolor="#666666"
     gridspacingx="5px"
     gridspacingy="5px"
     inkscape:window-y="256"
     gridtolerance="5px"
     inkscape:document-units="px"
     inkscape:zoom="4.2756052"
     inkscape:window-height="737"
     borderopacity="1.0"
     inkscape:grid-bbox="false"
     inkscape:cx="400"
     inkscape:pageopacity="0.0" />
  <metadata
     id="metadata7">
    <rdf:RDF>
      <cc:Work
         rdf:about="">
        <dc:format>image/svg+xml</dc:format>
        <dc:type
           rdf:resource="http://purl.org/dc/dcmitype/StillImage" />
      </cc:Work>
    </rdf:RDF>
  </metadata>
  <g
     inkscape:groupmode="layer"
     id="layer1"
     inkscape:label="Layer 1">
    <rect
       x="0"
       y="2"
       id="rect1406"
       height="535"
       style="fill:#8686ff;fill-opacity:1;fill-rule:evenodd;stroke:#000000;stroke-width:1px;stroke-linecap:butt;stroke-linejoin:miter;stroke-opacity:1"
       width="800" />
    <path
       d="M 105,219 L 135,219 L 145,232 L 135,242 L 105,242 L 95,232 L 105,219 z M 165,219 L 295,219 L 305,232 L 295,242 L 275,242 L 245,272 L 225,252 L 195,252 L 185,242 L 165,242 L 155,232 L 165,219 z "
       id="c0"
       inkscape:label="#path1311"
       style="fill:#ffffff;fill-opacity:1;fill-rule:evenodd;stroke:#686f00;stroke-width:2;stroke-linecap:butt;stroke-linejoin:miter;stroke-miterlimit:4;stroke-dasharray:none;stroke-opacity:1" />
    <path
       d="M 465,219 L 495,219 L 475,242 L 505,272 L 495,282 L 485,282 L 475,272 L 465,272 L 455,282 L 465,292 L 455,302 L 445,302 L 435,312 L 425,312 L 395,282 L 425,252 L 435,252 L 465,219 z "
       id="c6"
       inkscape:label="#path1318"
       style="fill:#ffffff;fill-opacity:1;fill-rule:evenodd;stroke:#08005a;stroke-width:2;stroke-linecap:butt;stroke-linejoin:miter;stroke-opacity:1;stroke-miterlimit:4;stroke-dasharray:none" />
    <path
       d="M 495,219 L 515,219 L 525,232 L 515,242 L 495,242 L 525,272 L 515,282 L 555,322 L 565,322 L 545,342 L 525,342 L 515,352 L 545,382 L 505,382 L 515,372 L 505,362 L 495,362 L 475,342 L 465,342 L 445,322 L 455,322 L 505,272 L 475,242 L 495,219 z "
       id="path1320"
       style="fill:#ffffff;fill-opacity:1;fill-rule:evenodd;stroke:#08005a;stroke-width:2;stroke-linecap:butt;stroke-linejoin:miter;stroke-opacity:1;stroke-miterlimit:4;stroke-dasharray:none" />
    <path
       d="M 505,252 L 545,252 L 635,342 L 605,342 L 585,322 L 555,322 L 515,282 L 525,272 L 505,252 z "
       id="c9"
       inkscape:label="#path1322"
       style="fill:#ffffff;fill-opacity:1;fill-rule:evenodd;stroke:#005a08;stroke-width:2;stroke-linecap:butt;stroke-linejoin:miter;stroke-opacity:1;stroke-miterlimit:4;stroke-dasharray:none" />
    <path
       d="M 545,252 L 565,232 L 585,232 L 595,242 L 585,252 L 635,302 L 655,302 L 665,312 L 675,312 L 655,332 L 665,342 L 635,342 L 545,252 z "
       id="path1324"
       style="fill:#ffffff;fill-opacity:1;fill-rule:evenodd;stroke:#005a08;stroke-width:2;stroke-linecap:butt;stroke-linejoin:miter;stroke-opacity:1;stroke-miterlimit:4;stroke-dasharray:none" />
    <path
       d="M 595,242 L 675,242 L 655,262 L 665,272 L 605,272 L 585,252 L 595,242 z "
       id="c2"
       inkscape:label="#path1326"
       style="fill:#ffffff;fill-opacity:1;fill-rule:evenodd;stroke:#005a08;stroke-width:2;stroke-linecap:butt;stroke-linejoin:miter;stroke-opacity:1;stroke-miterlimit:4;stroke-dasharray:none" />
    <path
       d="M 685,232 L 765,232 L 745,252 L 715,252 L 735,272 L 725,282 L 705,262 L 695,272 L 735,312 L 725,322 L 715,312 L 705,312 L 655,262 L 685,232 z "
       id="c3"
       inkscape:label="#path1328"
       style="fill:#ffffff;fill-opacity:1;fill-rule:evenodd;stroke:#005a08;stroke-width:2;stroke-linecap:butt;stroke-linejoin:miter;stroke-opacity:1;stroke-miterlimit:4;stroke-dasharray:none" />
    <path
       d="M 5,262 L 25,242 L 65,242 L 75,252 L 55,272 L 65,282 L 55,292 L 35,272 L 15,272 L 5,262 z "
       id="c1"
       inkscape:label="#path1330"
       style="fill:#ffffff;fill-opacity:1;fill-rule:evenodd;stroke:#686f00;stroke-width:2;stroke-linecap:butt;stroke-linejoin:miter;stroke-miterlimit:4;stroke-dasharray:none;stroke-opacity:1" />
    <path
       d="M 75,252 L 135,252 L 105,282 L 65,282 L 55,272 L 75,252 z "
       id="c4"
       inkscape:label="#path1332"
       style="fill:#ffffff;fill-opacity:1;fill-rule:evenodd;stroke:#686f00;stroke-width:2;stroke-linecap:butt;stroke-linejoin:miter;stroke-miterlimit:4;stroke-dasharray:none;stroke-opacity:1" />
    <path
       d="M 135,252 L 175,252 L 155,272 L 185,302 L 175,312 L 135,312 L 105,282 L 135,252 z "
       id="c7"
       inkscape:label="#path1334"
       style="fill:#ffffff;fill-opacity:1;fill-rule:evenodd;stroke:#686f00;stroke-width:2;stroke-linecap:butt;stroke-linejoin:miter;stroke-miterlimit:4;stroke-dasharray:none;stroke-opacity:1" />
    <path
       d="M 195,272 L 225,272 L 245,292 L 225,312 L 175,312 L 185,302 L 175,292 L 195,272 z "
       id="c8"
       inkscape:label="#path1336"
       style="fill:#ffffff;fill-opacity:1;fill-rule:evenodd;stroke:#686f00;stroke-width:2;stroke-linecap:butt;stroke-linejoin:miter;stroke-miterlimit:4;stroke-dasharray:none;stroke-opacity:1" />
    <path
       d="M 285,252 L 325,252 L 335,262 L 315,282 L 275,282 L 265,272 L 285,252 z "
       id="c5"
       inkscape:label="#path1338"
       style="fill:#ffffff;fill-opacity:1;fill-rule:evenodd;stroke:#08005a;stroke-width:2;stroke-linecap:butt;stroke-linejoin:miter;stroke-opacity:1;stroke-miterlimit:4;stroke-dasharray:none" />
    <path
       d="M 345,272 L 385,272 L 355,302 L 365,312 L 375,312 L 385,322 L 375,332 L 325,332 L 315,322 L 345,292 L 335,282 L 345,272 z M 305,292 L 335,292 L 315,312 L 305,312 L 295,302 L 305,292 z "
       id="c12"
       inkscape:label="#path1340"
       style="fill:#ffffff;fill-opacity:1;fill-rule:evenodd;stroke:#08005a;stroke-width:2;stroke-linecap:butt;stroke-linejoin:miter;stroke-opacity:1;stroke-miterlimit:4;stroke-dasharray:none" />
    <path
       d="M 605,272 L 665,272 L 705,312 L 665,312 L 655,302 L 635,302 L 605,272 z "
       id="c10"
       inkscape:label="#path1347"
       style="fill:#ffffff;fill-opacity:1;fill-rule:evenodd;stroke:#005a08;stroke-width:2;stroke-linecap:butt;stroke-linejoin:miter;stroke-opacity:1;stroke-miterlimit:4;stroke-dasharray:none" />
    <path
       d="M 675,312 L 715,312 L 725,322 L 705,342 L 725,362 L 705,362 L 695,352 L 675,352 L 655,332 L 675,312 z "
       id="path1349"
       style="fill:#ffffff;fill-opacity:1;fill-rule:evenodd;stroke:#005a08;stroke-width:2;stroke-linecap:butt;stroke-linejoin:miter;stroke-opacity:1;stroke-miterlimit:4;stroke-dasharray:none" />
    <path
       d="M 745,282 L 775,282 L 795,302 L 765,302 L 795,332 L 775,352 L 765,352 L 755,362 L 745,362 L 725,342 L 755,312 L 735,292 L 745,282 z "
       id="path1351"
       style="fill:#ffffff;fill-opacity:1;fill-rule:evenodd;stroke:#005a08;stroke-width:2;stroke-linecap:butt;stroke-linejoin:miter;stroke-opacity:1;stroke-miterlimit:4;stroke-dasharray:none" />
    <path
       d="M 65,282 L 105,282 L 135,312 L 55,312 L 65,302 L 55,292 L 65,282 z "
       id="c11"
       inkscape:label="#path1353"
       style="fill:#ffffff;fill-opacity:1;fill-rule:evenodd;stroke:#686f00;stroke-width:2;stroke-linecap:butt;stroke-linejoin:miter;stroke-miterlimit:4;stroke-dasharray:none;stroke-opacity:1" />
    <path
       d="M 55,312 L 155,312 L 175,332 L 145,362 L 85,362 L 45,322 L 55,312 z "
       id="path1355"
       style="fill:#ffffff;fill-opacity:1;fill-rule:evenodd;stroke:#686f00;stroke-width:2;stroke-linecap:butt;stroke-linejoin:miter;stroke-miterlimit:4;stroke-dasharray:none;stroke-opacity:1" />
    <path
       d="M 155,312 L 225,312 L 235,302 L 265,302 L 235,332 L 255,352 L 225,352 L 215,342 L 195,342 L 175,362 L 145,362 L 175,332 L 155,312 z "
       id="path1357"
       style="fill:#ffffff;fill-opacity:1;fill-rule:evenodd;stroke:#686f00;stroke-width:2;stroke-linecap:butt;stroke-linejoin:miter;stroke-miterlimit:4;stroke-dasharray:none;stroke-opacity:1" />
    <path
       d="M 415,322 L 445,322 L 465,342 L 455,352 L 405,352 L 395,342 L 415,322 z "
       id="path1359"
       style="fill:#ffffff;fill-opacity:1;fill-rule:evenodd;stroke:#08005a;stroke-width:2;stroke-linecap:butt;stroke-linejoin:miter;stroke-opacity:1;stroke-miterlimit:4;stroke-dasharray:none" />
    <path
       d="M 565,322 L 585,322 L 615,352 L 595,372 L 615,392 L 555,392 L 545,382 L 555,372 L 545,362 L 555,352 L 545,342 L 565,322 z "
       id="path1361"
       style="fill:#ffffff;fill-opacity:1;fill-rule:evenodd;stroke:#005a08;stroke-width:2;stroke-linecap:butt;stroke-linejoin:miter;stroke-opacity:1;stroke-miterlimit:4;stroke-dasharray:none" />
    <path
       d="M 605,342 L 665,342 L 675,352 L 695,352 L 705,362 L 725,362 L 685,402 L 655,402 L 645,392 L 615,392 L 595,372 L 615,352 L 605,342 z "
       id="path1363"
       style="fill:#ffffff;fill-opacity:1;fill-rule:evenodd;stroke:#005a08;stroke-width:2;stroke-linecap:butt;stroke-linejoin:miter;stroke-opacity:1;stroke-miterlimit:4;stroke-dasharray:none" />
    <path
       d="M 85,362 L 175,362 L 165,372 L 175,382 L 185,372 L 205,372 L 185,392 L 205,412 L 175,412 L 165,402 L 135,402 L 105,372 L 95,372 L 85,362 z "
       id="path1365"
       style="fill:#ffffff;fill-opacity:1;fill-rule:evenodd;stroke:#686f00;stroke-width:2;stroke-linecap:butt;stroke-linejoin:miter;stroke-miterlimit:4;stroke-dasharray:none;stroke-opacity:1" />
    <path
       d="M 335,342 L 395,342 L 405,352 L 385,372 L 365,372 L 355,382 L 315,382 L 305,372 L 315,362 L 335,362 L 345,352 L 335,342 z "
       id="path1368"
       style="fill:#ffffff;fill-opacity:1;fill-rule:evenodd;stroke:#08005a;stroke-width:2;stroke-linecap:butt;stroke-linejoin:miter;stroke-opacity:1;stroke-miterlimit:4;stroke-dasharray:none" />
    <path
       d="M 405,352 L 455,352 L 465,342 L 475,342 L 495,362 L 485,372 L 465,372 L 455,382 L 405,382 L 415,372 L 385,372 L 405,352 z "
       id="path1370"
       style="fill:#ffffff;fill-opacity:1;fill-rule:evenodd;stroke:#08005a;stroke-width:2;stroke-linecap:butt;stroke-linejoin:miter;stroke-opacity:1;stroke-miterlimit:4;stroke-dasharray:none" />
    <path
       d="M 485,382 L 545,382 L 555,392 L 575,392 L 555,412 L 515,412 L 525,422 L 545,422 L 525,442 L 495,442 L 475,422 L 485,412 L 495,412 L 505,402 L 485,402 L 475,392 L 485,382 z "
       id="path1372"
       style="fill:#ffffff;fill-opacity:1;fill-rule:evenodd;stroke:#005a08;stroke-width:2;stroke-linecap:butt;stroke-linejoin:miter;stroke-opacity:1;stroke-miterlimit:4;stroke-dasharray:none" />
    <path
       d="M 575,392 L 645,392 L 655,402 L 605,452 L 595,452 L 555,412 L 575,392 z "
       id="path1374"
       style="fill:#ffffff;fill-opacity:1;fill-rule:evenodd;stroke:#005a08;stroke-width:2;stroke-linecap:butt;stroke-linejoin:miter;stroke-opacity:1;stroke-miterlimit:4;stroke-dasharray:none" />
    <path
       d="M 655,402 L 705,402 L 715,412 L 685,442 L 675,442 L 645,412 L 655,402 z "
       id="path1376"
       style="fill:#ffffff;fill-opacity:1;fill-rule:evenodd;stroke:#005a08;stroke-width:2;stroke-linecap:butt;stroke-linejoin:miter;stroke-opacity:1;stroke-miterlimit:4;stroke-dasharray:none" />
    <path
       d="M 325,392 L 355,392 L 365,402 L 415,402 L 405,412 L 425,432 L 415,442 L 345,442 L 335,452 L 305,452 L 285,432 L 325,392 z "
       id="path1378"
       style="fill:#ffffff;fill-opacity:1;fill-rule:evenodd;stroke:#5a3500;stroke-width:2;stroke-linecap:butt;stroke-linejoin:miter;stroke-opacity:1;stroke-miterlimit:4;stroke-dasharray:none" />
    <path
       d="M 415,402 L 455,402 L 485,432 L 475,442 L 415,442 L 425,432 L 405,412 L 415,402 z "
       id="path1380"
       style="fill:#ffffff;fill-opacity:1;fill-rule:evenodd;stroke:#5a3500;stroke-width:2;stroke-linecap:butt;stroke-linejoin:miter;stroke-opacity:1;stroke-miterlimit:4;stroke-dasharray:none" />
    <path
       d="M 175,412 L 205,412 L 215,422 L 245,422 L 255,432 L 235,432 L 225,442 L 115,442 L 135,422 L 165,422 L 175,412 z "
       id="path1382"
       style="fill:#ffffff;fill-opacity:1;fill-rule:evenodd;stroke:#5a0000;stroke-width:2;stroke-linecap:butt;stroke-linejoin:miter;stroke-opacity:1;stroke-miterlimit:4;stroke-dasharray:none" />
    <path
       d="M 235,432 L 255,432 L 275,452 L 245,482 L 235,482 L 225,492 L 215,492 L 205,482 L 215,472 L 205,462 L 195,462 L 175,442 L 225,442 L 235,432 z "
       id="path1384"
       style="fill:#ffffff;fill-opacity:1;fill-rule:evenodd;stroke:#5a0000;stroke-width:2;stroke-linecap:butt;stroke-linejoin:miter;stroke-opacity:1;stroke-miterlimit:4;stroke-dasharray:none" />
    <path
       d="M 115,442 L 175,442 L 195,462 L 205,462 L 215,472 L 145,472 L 115,442 z "
       id="path1386"
       style="fill:#ffffff;fill-opacity:1;fill-rule:evenodd;stroke:#5a0000;stroke-width:2;stroke-linecap:butt;stroke-linejoin:miter;stroke-opacity:1;stroke-miterlimit:4;stroke-dasharray:none" />
    <path
       d="M 145,472 L 215,472 L 205,482 L 215,492 L 175,532 L 145,532 L 125,512 L 155,482 L 145,472 z "
       id="path1388"
       style="fill:#ffffff;fill-opacity:1;fill-rule:evenodd;stroke:#5a0000;stroke-width:2;stroke-linecap:butt;stroke-linejoin:miter;stroke-opacity:1;stroke-miterlimit:4;stroke-dasharray:none" />
    <path
       d="M 345,442 L 395,442 L 435,482 L 425,492 L 375,492 L 355,472 L 365,462 L 355,452 L 335,452 L 345,442 z "
       id="path1390"
       style="fill:#ffffff;fill-opacity:1;fill-rule:evenodd;stroke:#5a3500;stroke-width:2;stroke-linecap:butt;stroke-linejoin:miter;stroke-opacity:1;stroke-miterlimit:4;stroke-dasharray:none" />
    <path
       d="M 395,442 L 465,442 L 475,452 L 505,452 L 475,482 L 435,482 L 395,442 z "
       id="path1392"
       style="fill:#ffffff;fill-opacity:1;fill-rule:evenodd;stroke:#5a3500;stroke-width:2;stroke-linecap:butt;stroke-linejoin:miter;stroke-opacity:1;stroke-miterlimit:4;stroke-dasharray:none" />
    <path
       d="M 435,482 L 475,482 L 455,502 L 465,512 L 445,532 L 425,532 L 385,492 L 425,492 L 435,482 z "
       id="path1394"
       style="fill:#ffffff;fill-opacity:1;fill-rule:evenodd;stroke:#5a3500;stroke-width:2;stroke-linecap:butt;stroke-linejoin:miter;stroke-opacity:1;stroke-miterlimit:4;stroke-dasharray:none" />
    <path
       d="M 505,472 L 545,472 L 555,482 L 545,492 L 535,492 L 515,512 L 485,512 L 475,502 L 505,472 z "
       id="path1396"
       style="fill:#ffffff;fill-opacity:1;fill-rule:evenodd;stroke:#5a3500;stroke-width:2;stroke-linecap:butt;stroke-linejoin:miter;stroke-opacity:1;stroke-miterlimit:4;stroke-dasharray:none" />
    <path
       d="M 675,452 L 695,452 L 715,472 L 705,482 L 655,482 L 645,472 L 655,462 L 665,462 L 675,452 z "
       id="path1398"
       style="fill:#ffffff;fill-opacity:1;fill-rule:evenodd;stroke:#5a0048;stroke-width:2;stroke-linecap:butt;stroke-linejoin:miter;stroke-opacity:1;stroke-miterlimit:4;stroke-dasharray:none" />
    <path
       d="M 735,452 L 765,452 L 775,462 L 785,462 L 795,472 L 785,482 L 745,482 L 725,462 L 735,452 z "
       id="path1400"
       style="fill:#ffffff;fill-opacity:1;fill-rule:evenodd;stroke:#5a0048;stroke-width:2;stroke-linecap:butt;stroke-linejoin:miter;stroke-opacity:1;stroke-miterlimit:4;stroke-dasharray:none" />
    <path
       d="M 665,492 L 745,492 L 735,502 L 715,502 L 685,532 L 625,532 L 635,522 L 625,512 L 635,502 L 655,502 L 665,492 z "
       id="path1402"
       style="fill:#ffffff;fill-opacity:1;fill-rule:evenodd;stroke:#5a0048;stroke-width:2;stroke-linecap:butt;stroke-linejoin:miter;stroke-opacity:1;stroke-miterlimit:4;stroke-dasharray:none" />
    <path
       d="M 745,492 L 765,492 L 785,512 L 765,532 L 685,532 L 715,502 L 735,502 L 745,492 z "
       id="path1404"
       style="fill:#ffffff;fill-opacity:1;fill-rule:evenodd;stroke:#5a0048;stroke-width:2;stroke-linecap:butt;stroke-linejoin:miter;stroke-opacity:1;stroke-miterlimit:4;stroke-dasharray:none" />
    <path
       d="M 105,219 L 95,232 L 105,242 L 135,242 L 145,232 L 135,219 L 105,219 z M 165,219 L 155,232 L 165,242 L 185,242 L 195,252 L 225,252 L 245,272 L 275,242 L 295,242 L 305,232 L 295,219 L 165,219 z M 25,242 L 5,262 L 15,272 L 35,272 L 55,292 L 65,302 L 55,312 L 45,322 L 85,362 L 95,372 L 105,372 L 135,402 L 165,402 L 175,412 L 205,412 L 185,392 L 205,372 L 185,372 L 175,382 L 165,372 L 175,362 L 195,342 L 215,342 L 225,352 L 255,352 L 235,332 L 265,302 L 235,302 L 245,292 L 225,272 L 195,272 L 175,292 L 155,272 L 175,252 L 135,252 L 75,252 L 65,242 L 25,242 z "
       id="path4027"
       style="opacity:1;fill:none;fill-opacity:1;fill-rule:evenodd;stroke:#686f00;stroke-width:5;stroke-linecap:round;stroke-linejoin:round;stroke-miterlimit:4;stroke-dasharray:none;stroke-opacity:1" />
    <path
       d="M 465,219 L 435,252 L 425,252 L 395,282 L 425,312 L 435,312 L 445,302 L 455,302 L 465,292 L 455,282 L 465,272 L 475,272 L 485,282 L 495,282 L 455,322 L 445,322 L 415,322 L 395,342 L 335,342 L 345,352 L 335,362 L 315,362 L 305,372 L 315,382 L 355,382 L 365,372 L 385,372 L 415,372 L 405,382 L 455,382 L 465,372 L 485,372 L 495,362 L 505,362 L 515,372 L 505,382 L 545,382 L 515,352 L 525,342 L 545,342 L 565,322 L 555,322 L 515,282 L 525,272 L 495,242 L 515,242 L 525,232 L 515,219 L 495,219 L 465,219 z M 285,252 L 265,272 L 275,282 L 315,282 L 335,262 L 325,252 L 285,252 z M 345,272 L 335,282 L 345,292 L 315,322 L 325,332 L 375,332 L 385,322 L 375,312 L 365,312 L 355,302 L 385,272 L 345,272 z M 305,292 L 295,302 L 305,312 L 315,312 L 335,292 L 305,292 z "
       id="path5812"
       style="opacity:1;fill:none;fill-opacity:1;fill-rule:evenodd;stroke:#08005a;stroke-width:5;stroke-linecap:round;stroke-linejoin:round;stroke-miterlimit:4;stroke-dasharray:none;stroke-opacity:1" />
    <path
       d="M 745,282 L 735,292 L 755,312 L 725,342 L 745,362 L 755,362 L 765,352 L 775,352 L 795,332 L 765,302 L 795,302 L 775,282 L 745,282 z M 505,382 L 485,382 L 475,392 L 485,402 L 505,402 L 495,412 L 485,412 L 475,422 L 495,442 L 525,442 L 545,422 L 525,422 L 515,412 L 555,412 L 595,452 L 605,452 L 645,412 L 675,442 L 685,442 L 715,412 L 705,402 L 685,402 L 725,362 L 705,342 L 725,322 L 735,312 L 695,272 L 705,262 L 725,282 L 735,272 L 715,252 L 745,252 L 765,232 L 685,232 L 675,242 L 595,242 L 585,232 L 565,232 L 545,252 L 505,252 M 545,342 L 555,352 L 545,362 L 555,372 L 545,382"
       id="path5827"
       style="opacity:1;fill:none;fill-opacity:1;fill-rule:evenodd;stroke:#005a08;stroke-width:5;stroke-linecap:round;stroke-linejoin:round;stroke-miterlimit:4;stroke-dasharray:none;stroke-opacity:1"
       sodipodi:nodetypes="cccccccccccccccccccccccccccccccccccccccccccccccccccccccccc" />
    <path
       d="M 175,412 L 165,422 L 135,422 L 115,442 L 145,472 L 155,482 L 125,512 L 145,532 L 175,532 L 215,492 L 225,492 L 235,482 L 245,482 L 275,452 L 255,432 L 245,422 L 215,422 L 205,412"
       id="path5852"
       style="opacity:1;fill:none;fill-opacity:1;fill-rule:evenodd;stroke:#5a0000;stroke-width:5;stroke-linecap:round;stroke-linejoin:round;stroke-miterlimit:4;stroke-dasharray:none;stroke-opacity:1"
       sodipodi:nodetypes="cccccccccccccccccc" />
    <path
       d="M 505,472 L 475,502 L 485,512 L 515,512 L 535,492 L 545,492 L 555,482 L 545,472 L 505,472 z M 475,422 L 455,402 L 415,402 L 365,402 L 355,392 L 325,392 L 285,432 L 305,452 L 335,452 L 355,452 L 365,462 L 355,472 L 375,492 L 385,492 L 425,532 L 445,532 L 465,512 L 455,502 L 475,482 L 505,452 L 475,452 L 465,442 L 475,442 L 485,432"
       id="path5861"
       style="opacity:1;fill:none;fill-opacity:1;fill-rule:evenodd;stroke:#5a3500;stroke-width:5;stroke-linecap:round;stroke-linejoin:round;stroke-miterlimit:4;stroke-dasharray:none;stroke-opacity:1"
       sodipodi:nodetypes="ccccccccccccccccccccccccccccccccc" />
    <path
       d="M 675,452 L 665,462 L 655,462 L 645,472 L 655,482 L 705,482 L 715,472 L 695,452 L 675,452 z M 735,452 L 725,462 L 745,482 L 785,482 L 795,472 L 785,462 L 775,462 L 765,452 L 735,452 z M 665,492 L 655,502 L 635,502 L 625,512 L 635,522 L 625,532 L 685,532 L 765,532 L 785,512 L 765,492 L 745,492 L 665,492 z "
       id="path5874"
       style="opacity:1;fill:none;fill-opacity:1;fill-rule:evenodd;stroke:#5a0048;stroke-width:5;stroke-linecap:round;stroke-linejoin:round;stroke-miterlimit:4;stroke-dasharray:none;stroke-opacity:1"
       sodipodi:nodetypes="cccccccccccccccccccccccccccccc" />
    <path
       style="fill:none;fill-opacity:0.75;fill-rule:evenodd;stroke:#5a0000;stroke-width:5;stroke-linecap:round;stroke-linejoin:miter;stroke-miterlimit:4;stroke-dasharray:5, 10;stroke-dashoffset:2.5;stroke-opacity:1"
       d="M 175,412 L 205,412"
       id="path13047" />
    <path
       style="fill:none;fill-opacity:0.75;fill-rule:evenodd;stroke:#005a08;stroke-width:5;stroke-linecap:round;stroke-linejoin:round;stroke-miterlimit:4;stroke-dasharray:5, 10;stroke-dashoffset:4;stroke-opacity:1"
       d="M 505,382 L 545,382"
       id="path13922" />
    <path
       style="fill:none;fill-opacity:0.75;fill-rule:evenodd;stroke:#005a08;stroke-width:5;stroke-linecap:round;stroke-linejoin:round;stroke-miterlimit:4;stroke-dasharray:5, 10;stroke-dashoffset:0;stroke-opacity:1"
       d="M 505,252 L 525,272 L 515,282 L 555,322 L 565,322 L 545,342"
       id="path13924" />
    <path
       style="fill:none;fill-opacity:0.75;fill-rule:evenodd;stroke:#5a3500;stroke-width:5;stroke-linecap:round;stroke-linejoin:miter;stroke-opacity:1;stroke-miterlimit:4;stroke-dasharray:5,10;stroke-dashoffset:2.5"
       d="M 475,422 L 485,432"
       id="path16649" />
  </g>
</svg>
